<svg xmlns="http://www.w3.org/2000/svg" width="322.419" height="69.643" viewBox="0 0 322.419 69.643">
  <g id="Group_9348" data-name="Group 9348" transform="translate(0.221 0.717)">
    <g id="Group_9346" data-name="Group 9346" transform="translate(0.083 -0.394)">
      <path id="Path_6453" data-name="Path 6453" d="M52.254,6.016s2.045,30.241-3.4,41.262c-8.691,17.593-22.3,22.292-22.3,22.292A48.53,48.53,0,0,1,3.3,44.714C-.827,34.949.847,6.016.847,6.016S14.634,5.183,26.307.57C38.441,5.273,52.254,6.016,52.254,6.016Z" transform="translate(-0.512 -0.57)" fill="#fff" stroke="#212121" stroke-miterlimit="10" stroke-width="0.6"/>
      <path id="Path_6454" data-name="Path 6454" d="M1.968,6.934s14.279-.911,25.08-5.394l.263,68c-.035,0-19.228-8.85-24.083-28.968C3.228,40.575,1.26,33.442,1.968,6.934Z" transform="translate(-1.252 -1.121)" fill="#e6e7e7"/>
      <path id="Path_6455" data-name="Path 6455" d="M15.778,44.287c-6.6-10.818,2.158-23.462,15.561-23.557,14.214,0,19.556,9.8,20.45,11.133v6.261H36.62c-2.559,0-4.074,2.183-1.515,4.691C54.377,36,62.123,55.592,44.711,59.062c-1.325-2.947-1.109-2.5-2.645-5.838,8.833-1.295,4.354-6.607-2.421-4.777-5.916,1.588-9.131,7.711,1.657,15.6l-8.013,1.415s-11.155-7.3-3.806-18.78c-3.884-4.678-5-14.736,7.2-14.736h6.473c-7.621-9.748-29.184-4.652-20.243,11.133V59.532h-7.09L15.778,44.3" transform="translate(-7.912 -12.03)" fill="#c2202c" fill-rule="evenodd"/>
    </g>
    <g id="Group_9349" data-name="Group 9349" transform="translate(0 1.186)">
      <path id="Path_6456" data-name="Path 6456" d="M366.15,127.916a38.918,38.918,0,0,0,21.317,6.68c11.737,0,13-4.937,13-7.06,0-3.15-3.582-6.546-11.453-6.546a22.786,22.786,0,0,0-10.382,2.615l2.106,2.693a16.657,16.657,0,0,1,7.4-2.158h.207c2.158,0,3.91,1.355,3.91,3.021,0,1.014-.462,4.315-6.386,4.315-7.767,0-15.457-4.613-17.438-6.184Z" transform="translate(-208.287 -68.935)" fill="#ba2027"/>
      <path id="Path_6457" data-name="Path 6457" d="M404.37,49.479V20.166h4.574V16.118H201.768l.656-.729a5.491,5.491,0,0,0,1.592-3.642C204.016,6,192.995,1.33,179.462,1.33s-24.541,4.682-24.541,10.417A5.461,5.461,0,0,0,156.5,15.38l.656.729H152.35v4.035h4.587V49.457h10.227v-29.3h24.364V24.4h-11.9c-4.652.009-6.292,2.451-6.292,4.527,0,2.274,1.01,3.767,3.383,5l.725.38-.716.38a7.859,7.859,0,0,0-4.475,7.073c0,9.964,15.863,10.464,19.043,10.464H202.16V48.806h-8.466c-7.694,0-10.434-3.746-10.434-7.249,0-3.413,2.762-7.034,7.936-7.034,5.368,0,5.787,2.675,5.787,3.5a3.274,3.274,0,0,1-3.452,3.154h-3.452v2.934h5.58c1.1,0,10.788-.168,10.788-6.2s-11.276-6.473-14.732-6.473a42.055,42.055,0,0,0-7.1.626H184.5l-.116-.043a2.213,2.213,0,0,1-1.532-2.158c0-1.484,1.07-2.335,2.939-2.335h15.966V20.166H262.34V25h-9.817c-8.268,0-13.006,3.741-13.006,10.257s5.61,11.155,13.61,11.155a15.293,15.293,0,0,0,8.458-2.637l.69-.462v4.842a28.889,28.889,0,0,1,5.351-.539,24.912,24.912,0,0,1,4.863.5V34.449H262.267V37.47l-.034.078c-1.217,2.861-3.167,4.194-6.136,4.194a6.245,6.245,0,0,1-6.257-6.473c0-3.884,2.844-6.473,7.077-6.473h14.292v-8.63h14.011l.121.108c1.674,1.381,3.176,2.93,3.176,6.067,0,3.5-2.814,6.041-6.689,6.041h-4.893v5.769c0,1.868.708,11.219,14.775,11.219l10.736.086V45.932c-1.523.056-2.96.056-5.813.056-8.4,0-9.748-2.274-9.748-7.707V36.029h16.652a14.7,14.7,0,0,1,.66-3.452H295.83l1.087-.794a7.1,7.1,0,0,0,2.589-5.463,9.6,9.6,0,0,0-1.937-5.454L297,20.149h36.114V25H320.789c-8.436,0-13.7,4.609-13.7,12.022,0,8.229,5.07,12.4,15.1,12.4h4.915v-3.5h-1.2c-3.966,0-8.2-2.222-8.2-8.453,0-5.9,4.013-8.544,7.987-8.544h7.388V49.492h10.266V20.149H349.5V49.462h10.24v-29.3h34.418V25H376.088c-7.336,0-12.272,4.147-12.272,10.356s5.178,9.925,13.83,9.925c9.127,0,12.359-4.315,12.359-8.052a11.778,11.778,0,0,0-1.454-5.506h-8a12.891,12.891,0,0,1,1.385,5.2c0,2.844-1.545,4.747-3.845,4.747-3.021,0-4.574-2.973-4.574-5.907,0-4.686,3.262-6.818,6.3-6.818h14.314V49.509ZM190.893,16l-.129.129H168.157L168.027,16a4.9,4.9,0,0,1-1.631-3.482c0-4.013,5.739-7.155,13.062-7.155s13.066,3.141,13.066,7.155A4.943,4.943,0,0,1,190.893,16Z" transform="translate(-86.746 -0.91)" fill="#ba2027"/>
      <path id="Path_6458" data-name="Path 6458" d="M312.052,65.421a13.153,13.153,0,0,1,2.615-3.931H296.716c-7.336,0-12.277,4.147-12.277,10.356s5.178,9.925,13.83,9.925c9.122,0,12.363-4.315,12.363-8.052a11.821,11.821,0,0,0-1.459-5.506h-8a12.79,12.79,0,0,1,1.385,5.2c0,2.839-1.549,4.747-3.845,4.747-3.021,0-4.578-2.973-4.578-5.907,0-4.686,3.262-6.818,6.3-6.818Z" transform="translate(-161.836 -35.11)" fill="#ba2027"/>
    </g>
  </g>
</svg>
